<svg xmlns="http://www.w3.org/2000/svg" width="40" height="28" viewBox="0 0 40 28">
  <path id="keyboard" d="M7,38a2.841,2.841,0,0,1-2.1-.925A2.906,2.906,0,0,1,4,35V13a2.878,2.878,0,0,1,.9-2.1A2.878,2.878,0,0,1,7,10H41a3.076,3.076,0,0,1,3,3V35a2.906,2.906,0,0,1-.9,2.075A2.841,2.841,0,0,1,41,38Zm0-3H41V13H7Zm8-3.25H33v-3H15ZM10.15,25.5h3v-3h-3Zm6.2,0h3v-3h-3Zm6.15,0h3v-3h-3Zm6.2,0h3v-3h-3Zm6.15,0h3v-3h-3Zm-24.7-6.25h3v-3h-3Zm6.2,0h3v-3h-3Zm6.15,0h3v-3h-3Zm6.2,0h3v-3h-3Zm6.15,0h3v-3h-3ZM7,35v0Z" transform="translate(-4 -10)" fill="#33d74b"/>
</svg>
