<svg xmlns="http://www.w3.org/2000/svg" width="40" height="40" viewBox="0 0 40 40">
  <path id="language" d="M24,44a19.6,19.6,0,0,1-7.85-1.575A20.2,20.2,0,0,1,9.8,38.15a19.783,19.783,0,0,1-4.25-6.375A20.054,20.054,0,0,1,4,23.9a19.692,19.692,0,0,1,1.55-7.825A19.928,19.928,0,0,1,9.8,9.75a19.52,19.52,0,0,1,6.35-4.225A20.156,20.156,0,0,1,24,4a20.156,20.156,0,0,1,7.85,1.525A19.52,19.52,0,0,1,38.2,9.75a19.928,19.928,0,0,1,4.25,6.325A19.692,19.692,0,0,1,44,23.9a20.054,20.054,0,0,1-1.55,7.875A19.783,19.783,0,0,1,38.2,38.15a20.2,20.2,0,0,1-6.35,4.275A19.6,19.6,0,0,1,24,44Zm0-2.9a16.641,16.641,0,0,0,2.925-4.125A24.834,24.834,0,0,0,28.85,31.45H19.2a25.358,25.358,0,0,0,1.875,5.4A17.04,17.04,0,0,0,24,41.1Zm-4.25-.6a23.9,23.9,0,0,1-2.15-4.1,29.953,29.953,0,0,1-1.5-4.95H8.6A17.932,17.932,0,0,0,13,37.025,21.969,21.969,0,0,0,19.75,40.5Zm8.55-.05A20.019,20.019,0,0,0,34.775,37,17.908,17.908,0,0,0,39.4,31.45H31.95a36.221,36.221,0,0,1-1.525,4.9,22.7,22.7,0,0,1-2.125,4.1Zm-20.7-12h7.95q-.15-1.35-.175-2.425T15.35,23.9q0-1.25.05-2.225t.2-2.175h-8a14.579,14.579,0,0,0-.475,2.15A17.522,17.522,0,0,0,7,23.9a19.373,19.373,0,0,0,.125,2.325A14.1,14.1,0,0,0,7.6,28.45Zm11.05,0H29.4q.2-1.55.25-2.525T29.7,23.9q0-1-.05-1.925T29.4,19.5H18.65q-.2,1.55-.25,2.475T18.35,23.9q0,1.05.05,2.025t.25,2.525Zm13.75,0h8a14.094,14.094,0,0,0,.475-2.225A19.372,19.372,0,0,0,41,23.9a17.522,17.522,0,0,0-.125-2.25A14.579,14.579,0,0,0,40.4,19.5H32.45q.15,1.75.2,2.675T32.7,23.9q0,1.1-.075,2.075T32.4,28.45ZM31.9,16.5h7.5a16.2,16.2,0,0,0-4.525-5.75A17.241,17.241,0,0,0,28.25,7.5a21.793,21.793,0,0,1,2.125,4,32.519,32.519,0,0,1,1.525,5Zm-12.7,0h9.7a19.5,19.5,0,0,0-1.85-5.125A20.454,20.454,0,0,0,24,7a11,11,0,0,0-2.7,3.55,32.284,32.284,0,0,0-2.1,5.95Zm-10.6,0h7.55a28.143,28.143,0,0,1,1.4-4.825A23.738,23.738,0,0,1,19.7,7.55,16.5,16.5,0,0,0,8.6,16.5Z" transform="translate(-4 -4)" fill="#33d74b"/>
</svg>
