<svg xmlns="http://www.w3.org/2000/svg" width="32" height="44" viewBox="0 0 32 44">
  <path id="mode" d="M22.5,33V32h3v1Zm0-2V29.15a5.244,5.244,0,0,1-1.425-1.35A3.01,3.01,0,0,1,20.5,26a3.5,3.5,0,0,1,5.975-2.475A3.372,3.372,0,0,1,27.5,26a3.01,3.01,0,0,1-.575,1.8A5.244,5.244,0,0,1,25.5,29.15V31Zm9.45.1-1.4-1.4a6.531,6.531,0,0,0,.725-1.775,8.347,8.347,0,0,0,0-3.85A6.531,6.531,0,0,0,30.55,22.3l1.4-1.4a9.671,9.671,0,0,1,1.15,2.45,8.978,8.978,0,0,1,0,5.3,9.671,9.671,0,0,1-1.15,2.45Zm-15.9,0a9.671,9.671,0,0,1-1.15-2.45A8.962,8.962,0,0,1,14.5,26a8.847,8.847,0,0,1,2.95-6.775A10.031,10.031,0,0,1,24.5,16.5V14.6l3.25,2.9L24.5,20.4V18.5a8.077,8.077,0,0,0-5.65,2.15A6.955,6.955,0,0,0,16.5,26a8.117,8.117,0,0,0,.225,1.925A6.531,6.531,0,0,0,17.45,29.7ZM11,46a2.988,2.988,0,0,1-3-3V5a2.893,2.893,0,0,1,.875-2.125A2.893,2.893,0,0,1,11,2H37a2.893,2.893,0,0,1,2.125.875A2.893,2.893,0,0,1,40,5V43a2.988,2.988,0,0,1-3,3Zm0-7.5H37V9.5H11Zm0,3V43H37V41.5Zm0-35H37V5H11ZM11,5V5Zm0,38v0Z" transform="translate(-8 -2)" fill="#33d74b"/>
</svg>
