<svg xmlns="http://www.w3.org/2000/svg" width="36" height="41.95" viewBox="0 0 36 41.95">
  <path id="timer" d="M18,5V2H30V5Zm4.5,22.35h3V15.85h-3ZM24,43.95a17.292,17.292,0,0,1-6.975-1.425,18.267,18.267,0,0,1-9.6-9.6,17.783,17.783,0,0,1,0-13.95,18.267,18.267,0,0,1,9.6-9.6A17.292,17.292,0,0,1,24,7.95a17.53,17.53,0,0,1,6.3,1.125A17.346,17.346,0,0,1,35.55,12.2L38.1,9.65l2.1,2.1L37.65,14.3a18.437,18.437,0,0,1,3.075,4.85A16.561,16.561,0,0,1,42,25.95a17.292,17.292,0,0,1-1.425,6.975,18.267,18.267,0,0,1-9.6,9.6A17.292,17.292,0,0,1,24,43.95Zm0-3a14.465,14.465,0,0,0,10.625-4.375A14.465,14.465,0,0,0,39,25.95a14.465,14.465,0,0,0-4.375-10.625A14.465,14.465,0,0,0,24,10.95a14.465,14.465,0,0,0-10.625,4.375A14.465,14.465,0,0,0,9,25.95a14.465,14.465,0,0,0,4.375,10.625A14.465,14.465,0,0,0,24,40.95ZM24,26Z" transform="translate(-6 -2)" fill="#33d74b"/>
</svg>
