<svg xmlns="http://www.w3.org/2000/svg" width="27" height="12" viewBox="0 0 27 12">
  <g id="undo4" transform="translate(-133.12 314.511)">
    <path id="Контур_1" data-name="Контур 1" d="M134.262-314.434a2.3,2.3,0,0,0-1.1,1.644c-.03.3-.051,2.4-.03,4.682.03,3.916.041,4.167.243,4.581a2.318,2.318,0,0,0,.547.715c.334.289.365.289,4.02.289,4.08,0,4.161-.013,4.607-.791a2.6,2.6,0,0,0,.061-2.209c-.425-.791-.78-.941-2.258-1.017l-1.316-.063.658-.577a15.476,15.476,0,0,1,2.683-2.008c5.022-2.925,11.411-.828,14.236,4.657.729,1.406.79,1.506,1.144,1.77.911.69,2.207-.126,2.359-1.481.111-1.029-.952-3.163-2.541-5.121a13.137,13.137,0,0,0-13.487-4.757,17.078,17.078,0,0,0-7.017,4.343l-.668.628-.051-2.084c-.041-1.845-.071-2.109-.263-2.422A1.583,1.583,0,0,0,134.262-314.434Z" transform="translate(0 0)" fill="#242627"/>
  </g>
</svg>
