<svg xmlns="http://www.w3.org/2000/svg" width="22.894" height="8.101" viewBox="0 0 22.894 8.101">
  <g id="undoBlack" transform="translate(-133.124 314.494)">
    <path id="Контур_1" data-name="Контур 1" d="M134.089-314.453a1.59,1.59,0,0,0-.933,1.111c-.025.2-.043,1.622-.025,3.165.025,2.647.035,2.817.206,3.1a1.667,1.667,0,0,0,.464.483c.283.2.31.2,3.409.2,3.46,0,3.528-.009,3.906-.535a1.44,1.44,0,0,0,.052-1.493c-.36-.535-.661-.636-1.915-.688l-1.116-.043.558-.39a13.328,13.328,0,0,1,2.275-1.358c4.258-1.977,9.676-.56,12.071,3.148.618.951.67,1.018.97,1.2a1.38,1.38,0,0,0,2-1c.094-.7-.807-2.138-2.155-3.462a12.794,12.794,0,0,0-11.436-3.216,15.427,15.427,0,0,0-5.95,2.936l-.566.425-.043-1.409c-.035-1.247-.06-1.426-.223-1.637A1.492,1.492,0,0,0,134.089-314.453Z" fill="#fff"/>
  </g>
</svg>
