<?xml version="1.0" encoding="utf-8"?>
<!-- Generator: Adobe Illustrator 27.2.0, SVG Export Plug-In . SVG Version: 6.00 Build 0)  -->
<svg version="1.1" id="Слой_1" xmlns="http://www.w3.org/2000/svg" xmlns:xlink="http://www.w3.org/1999/xlink" x="0px" y="0px"
	 viewBox="0 0 512 512" style="enable-background:new 0 0 512 512;" xml:space="preserve">
<style type="text/css">
	.st0{fill:#5161F9;}
	.st1{fill:none;}
	.st2{fill:url(#SVGID_1_);stroke:#000000;stroke-width:4;stroke-linecap:round;stroke-linejoin:round;stroke-miterlimit:10;}
	.st3{fill:#FF0000;}
	.st4{fill:#923C00;}
	.st5{fill:#3F007B;}
	.st6{fill:#D20060;}
	.st7{fill:#96007F;}
	.st8{fill:#8B2A03;}
	.st9{fill:#7D1D44;}
	.st10{fill:#B6006B;}
	.st11{fill:#800086;}
	.st12{fill:#9C7314;}
	.st13{fill:#916826;}
</style>
<g id="XMLID_00000118388837049284542270000007237421883630373001_">
	<g>
		<path class="st0" d="M487,424.2c0,27.1-22.2,49.4-49.4,49.4H73.5c-27.2,0-49.4-22.2-49.4-49.4V88.3C24.1,61.2,46.3,39,73.5,39
			h364.1c27.1,0,49.4,22.2,49.4,49.4L487,424.2L487,424.2z"/>
	</g>
	<g>
		<path class="st1" d="M437.6,473.6H73.5c-27.2,0-49.4-22.2-49.4-49.4V88.3C24.1,61.2,46.3,39,73.5,39h364.1
			c27.1,0,49.4,22.2,49.4,49.4v335.9C487,451.4,464.8,473.6,437.6,473.6z"/>
	</g>
</g>
<linearGradient id="SVGID_1_" gradientUnits="userSpaceOnUse" x1="66.45" y1="789.4297" x2="419.02" y2="789.4297" gradientTransform="matrix(1 0 0 1 0 -566)">
	<stop  offset="5.000000e-02" style="stop-color:#AA8000"/>
	<stop  offset="0.5337" style="stop-color:#552F7F"/>
	<stop  offset="1" style="stop-color:#DA2128"/>
</linearGradient>
<path class="st2" d="M66.4,351.6c0,1.3,74.4-126.9,74.4-126.9l38.5,63.5l79.5-98.1L310,258L419,95.2"/>
<line class="st1" x1="411.3" y1="432.6" x2="426.7" y2="432.6"/>
<path class="st3" d="M74.2,432.6"/>
<path class="st4" d="M139.5,432.6L139.5,432.6c-4.2,0-7.7-3.4-7.7-7.7V323.6c0-4.2,3.4-7.7,7.7-7.7l0,0c4.2,0,7.7,3.4,7.7,7.7v101.3
	C147.2,429.1,143.8,432.6,139.5,432.6z"/>
<g>
	<path class="st5" d="M262.9,432.6L262.9,432.6c-4.1,0-7.4-3.3-7.4-7.4V281c0-4.1,3.3-7.4,7.4-7.4l0,0c4.1,0,7.4,3.3,7.4,7.4v144.2
		C270.3,429.3,267,432.6,262.9,432.6z"/>
</g>
<path class="st6" d="M419,432.6L419,432.6c-7.8,0-14.1-6.3-14.1-14.1V246.7c0-7.8,6.3-14.1,14.1-14.1l0,0c7.8,0,14.1,6.3,14.1,14.1
	v171.8C433.1,426.3,426.8,432.6,419,432.6z"/>
<path class="st7" d="M324.8,432.6L324.8,432.6c-6,0-10.9-4.9-10.9-10.9v-36.5c0-6,4.9-10.9,10.9-10.9l0,0c6,0,10.9,4.9,10.9,10.9
	v36.5C335.7,427.7,330.8,432.6,324.8,432.6z"/>
<g>
	<path class="st8" d="M182.5,429.7L182.5,429.7c-6.7,0-12.2-5.5-12.2-12.2v-28.2c0-6.7,5.4-12.2,12.2-12.2l0,0
		c6.7,0,12.2,5.5,12.2,12.2v28.2C194.7,424.2,189.2,429.7,182.5,429.7z"/>
</g>
<g>
	<path class="st9" d="M226.7,432.6L226.7,432.6c-5,0-9-4-9-9v-82.1c0-5,4-9,9-9l0,0c5,0,9,4,9,9v82
		C235.7,428.5,231.7,432.6,226.7,432.6z"/>
</g>
<path class="st10" d="M370.3,432.6L370.3,432.6c-5.3,0-9.6-4.3-9.6-9.6V297.3c0-5.3,4.3-9.6,9.6-9.6l0,0c5.3,0,9.6,4.3,9.6,9.6V423
	C379.9,428.3,375.6,432.6,370.3,432.6z"/>
<path class="st11" d="M292.1,432.6L292.1,432.6c-5.3,0-9.6-4.3-9.6-9.6v-91c0-5.3,4.3-9.6,9.6-9.6l0,0c5.3,0,9.6,4.3,9.6,9.6v91
	C301.7,428.3,297.4,432.6,292.1,432.6z"/>
<path class="st12" d="M85.4,432.6L85.4,432.6c-3.9,0-7.1-3.2-7.1-7v-25.6c0-3.9,3.2-7,7.1-7l0,0c3.9,0,7.1,3.2,7.1,7v25.6
	C92.5,429.4,89.3,432.6,85.4,432.6z"/>
<path class="st13" d="M109.4,432.6L109.4,432.6c-3.9,0-7.1-3.2-7.1-7v-65.4c0-3.9,3.2-7,7.1-7l0,0c3.9,0,7.1,3.2,7.1,7v65.4
	C116.4,429.4,113.3,432.6,109.4,432.6z"/>
<polyline class="st1" points="182.2,152 143.5,174.7 36.6,174.7 75.3,152 "/>
<rect x="68.8" y="149" class="st1" width="126" height="43.2"/>
</svg>
