<svg xmlns="http://www.w3.org/2000/svg" width="40" height="40" viewBox="0 0 40 40">
  <path id="restart" d="M178.159,234a20.359,20.359,0,0,1-12.917-5.459A15.485,15.485,0,0,1,160,216.865a14.932,14.932,0,0,1,2.215-7.838,17.155,17.155,0,0,1,6.209-6l2.683,2.324a13.415,13.415,0,0,0-5.429,4.892,12.32,12.32,0,0,0-1.934,6.622,12.523,12.523,0,0,0,4.119,9.351,16.725,16.725,0,0,0,10.3,4.541Zm3.744,0v-3.243a16.842,16.842,0,0,0,10.3-4.568,12.525,12.525,0,0,0,4.056-9.324,12.711,12.711,0,0,0-4.711-9.973,16.973,16.973,0,0,0-11.513-4.081h-1.248l3.744,3.243-2.683,2.324-8.3-7.189,8.3-7.189,2.683,2.324-3.744,3.243h1.248a20.817,20.817,0,0,1,14.165,5.054,15.753,15.753,0,0,1,.593,23.919A20.23,20.23,0,0,1,181.9,234Z" transform="translate(-160 -194)" fill="#33d74b"/>
</svg>
