<svg xmlns="http://www.w3.org/2000/svg" width="800" height="800" viewBox="0 0 800 800">
  <path id="email" d="M480-80q-83,0-156-31.5T197-197q-54-54-85.5-127T80-480q0-83,31.5-156T197-763q54-54,127-85.5T480-880q83,0,156,31.5T763-763q54,54,85.5,127T880-480v58q0,59-40.5,100.5T740-280a149.583,149.583,0,0,1-66-15,140.933,140.933,0,0,1-52-43,192.492,192.492,0,0,1-65.5,43.5A205.323,205.323,0,0,1,480-280q-83,0-141.5-58.5T280-480q0-83,58.5-141.5T480-680q83,0,141.5,58.5T680-480v58q0,26,17,44t43,18q26,0,43-18t17-44v-58q0-134-93-227T480-800q-134,0-227,93T160-480q0,134,93,227t227,93H680v80Zm0-280q50,0,85-35t35-85q0-50-35-85t-85-35q-50,0-85,35t-35,85q0,50,35,85T480-360Z" transform="translate(-80 880)" fill="#33d74b"/>
</svg>
