<svg xmlns="http://www.w3.org/2000/svg" width="36" height="36" viewBox="0 0 36 36">
  <path id="correct" d="M9,42a2.878,2.878,0,0,1-2.1-.9A2.878,2.878,0,0,1,6,39V9a2.878,2.878,0,0,1,.9-2.1A2.878,2.878,0,0,1,9,6H39a2.878,2.878,0,0,1,2.1.9A2.878,2.878,0,0,1,42,9V39a3.076,3.076,0,0,1-3,3Zm0-3H39V9H9Zm11.95-7.65a1.468,1.468,0,0,0,.55-.1,1.524,1.524,0,0,0,.5-.35L34.35,18.55a1.506,1.506,0,0,0,.425-1.05,1.414,1.414,0,0,0-.425-1.1,1.509,1.509,0,0,0-2.15,0L20.95,27.65l-4.9-4.9a1.476,1.476,0,0,0-1.025-.425,1.383,1.383,0,0,0-1.075.425,1.509,1.509,0,0,0,0,2.15l5.95,6a1.524,1.524,0,0,0,.5.35,1.468,1.468,0,0,0,.55.1ZM9,39v0Z" transform="translate(-6 -6)" fill="#33d74b"/>
</svg>
