<svg xmlns="http://www.w3.org/2000/svg" width="36" height="40" viewBox="0 0 36 40">
  <path id="date" d="M15.5,27a1.5,1.5,0,1,1,0-3h17a1.5,1.5,0,1,1,0,3Zm0,9a1.5,1.5,0,1,1,0-3H26.45a1.5,1.5,0,1,1,0,3ZM9,44a2.878,2.878,0,0,1-2.1-.9A2.878,2.878,0,0,1,6,41V10a2.878,2.878,0,0,1,.9-2.1A2.878,2.878,0,0,1,9,7h3.25V5.6a1.515,1.515,0,0,1,.475-1.15A1.643,1.643,0,0,1,13.9,4a1.54,1.54,0,0,1,1.6,1.6V7h17V5.6a1.515,1.515,0,0,1,.475-1.15A1.643,1.643,0,0,1,34.15,4a1.54,1.54,0,0,1,1.6,1.6V7H39a2.878,2.878,0,0,1,2.1.9A2.878,2.878,0,0,1,42,10V41a3.076,3.076,0,0,1-3,3Zm0-3H39V19.5H9ZM9,16.5H39V10H9Zm0,0v0Z" transform="translate(-6 -4)" fill="#33d74b"/>
</svg>
