<svg xmlns="http://www.w3.org/2000/svg" width="60" height="60" viewBox="0 0 60 60">
  <path id="langHis" d="M69.593-820l12.353-36h5.7L100-820H94.3l-2.919-9.15H78.213L75.294-820Zm-21.448-9-3.8-4.2,13.71-15.15a34.367,34.367,0,0,1-4.31-6A54.2,54.2,0,0,1,50.181-862h5.7a47.24,47.24,0,0,0,2.715,5.1,34.005,34.005,0,0,0,3.258,4.35,35.848,35.848,0,0,0,4.649-6.937A46.035,46.035,0,0,0,70.136-868H40v-6H59v-6h5.43v6h19v6H75.566a57.973,57.973,0,0,1-4.276,11.1,37.789,37.789,0,0,1-5.633,8.7l6.516,7.35-2.036,6.15-8.281-9.375Zm31.765-5.4h9.774L84.8-849.7Z" transform="translate(-40 880)" fill="#33d74b"/>
</svg>
