<svg xmlns="http://www.w3.org/2000/svg" width="32" height="40" viewBox="0 0 32 40">
  <path id="timeHis" d="M15.8,41H32.2V34.65a8.49,8.49,0,0,0-2.375-6.025A7.687,7.687,0,0,0,24,26.1a7.687,7.687,0,0,0-5.825,2.525A8.49,8.49,0,0,0,15.8,34.65ZM24,21.9a7.687,7.687,0,0,0,5.825-2.525A8.552,8.552,0,0,0,32.2,13.3V7H15.8v6.3a8.552,8.552,0,0,0,2.375,6.075A7.687,7.687,0,0,0,24,21.9ZM38.5,44H9.5a1.5,1.5,0,1,1,0-3h3.3V34.65a11.9,11.9,0,0,1,1.825-6.425A10.361,10.361,0,0,1,19.7,24a10.323,10.323,0,0,1-5.075-4.25A12.027,12.027,0,0,1,12.8,13.3V7H9.5A1.454,1.454,0,0,1,8,5.5,1.454,1.454,0,0,1,9.5,4h29A1.454,1.454,0,0,1,40,5.5,1.454,1.454,0,0,1,38.5,7H35.2v6.3a11.906,11.906,0,0,1-1.85,6.45A10.485,10.485,0,0,1,28.3,24a10.361,10.361,0,0,1,5.075,4.225A11.9,11.9,0,0,1,35.2,34.65V41h3.3a1.5,1.5,0,1,1,0,3Z" transform="translate(-8 -4)" fill="#33d74b"/>
</svg>
