<svg xmlns="http://www.w3.org/2000/svg" width="38" height="38.65" viewBox="0 0 38 38.65">
  <path id="category" d="M15.75,21.7a1.464,1.464,0,0,1-1.35-.775,1.344,1.344,0,0,1,.05-1.525L22.8,6.05a1.466,1.466,0,0,1,2.5,0L33.65,19.4a1.344,1.344,0,0,1,.05,1.525,1.464,1.464,0,0,1-1.35.775ZM35.3,44a8.541,8.541,0,0,1-8.7-8.7,8.541,8.541,0,0,1,8.7-8.7A8.541,8.541,0,0,1,44,35.3,8.541,8.541,0,0,1,35.3,44ZM7.5,42.75A1.454,1.454,0,0,1,6,41.25V29.05a1.454,1.454,0,0,1,1.5-1.5H19.7a1.454,1.454,0,0,1,1.5,1.5v12.2a1.454,1.454,0,0,1-1.5,1.5ZM35.3,41a5.728,5.728,0,0,0,4.05-9.75,5.728,5.728,0,0,0-8.1,8.1A5.506,5.506,0,0,0,35.3,41ZM9,39.75h9.2v-9.2H9ZM18.45,18.7h11.2l-5.6-9.05ZM24.05,18.7ZM18.2,30.55ZM35.3,35.3Z" transform="translate(-6 -5.35)" fill="#fff"/>
</svg>
