<svg xmlns="http://www.w3.org/2000/svg" width="24" height="30" viewBox="0 0 24 30">
  <path id="content_copy" d="M8.118,33.95a1.976,1.976,0,0,1-1.482-.675A2.226,2.226,0,0,1,6,31.7V9.088H8.118V31.7H24.847v2.25Zm4.235-4.5a1.976,1.976,0,0,1-1.482-.675,2.226,2.226,0,0,1-.635-1.575V6.2a2.226,2.226,0,0,1,.635-1.575,1.976,1.976,0,0,1,1.482-.675H27.882a1.976,1.976,0,0,1,1.482.675A2.226,2.226,0,0,1,30,6.2v21a2.226,2.226,0,0,1-.635,1.575,1.976,1.976,0,0,1-1.482.675Zm0-2.25H27.882V6.2H12.353Zm0,0v0Z" transform="translate(-6 -3.95)" fill="#fff"/>
</svg>
