<svg xmlns="http://www.w3.org/2000/svg" width="40.8" height="32" viewBox="0 0 40.8 32">
  <path id="problem_" d="M13.05,31.9A1.538,1.538,0,1,0,12,31.45,1.439,1.439,0,0,0,13.05,31.9Zm-1.5-6.5h3V15.85h-3Zm8.95,4H36.45v-3H20.5Zm0-8.55H36.45v-3H20.5ZM6.6,40a2.878,2.878,0,0,1-2.1-.9A2.878,2.878,0,0,1,3.6,37V11a2.878,2.878,0,0,1,.9-2.1A2.878,2.878,0,0,1,6.6,8H41.4a2.878,2.878,0,0,1,2.1.9,2.878,2.878,0,0,1,.9,2.1V37a3.076,3.076,0,0,1-3,3Zm0-3H41.4V11H6.6Zm0,0v0Z" transform="translate(-3.6 -8)" fill="#33d74b"/>
</svg>
