<svg xmlns="http://www.w3.org/2000/svg" width="38.5" height="42.55" viewBox="0 0 38.5 42.55">
  <path id="timer_off" d="M39.2,35.45,37.05,33.3a13.656,13.656,0,0,0,1.4-3.3A14.5,14.5,0,0,0,39,25.95a14.465,14.465,0,0,0-4.375-10.625A14.465,14.465,0,0,0,24,10.95a15.231,15.231,0,0,0-4.025.525A11.908,11.908,0,0,0,16.65,12.9l-2.2-2.2a16.926,16.926,0,0,1,4.575-2.05A18.2,18.2,0,0,1,24,7.95,17.331,17.331,0,0,1,35.55,12.2l1.55-1.55a1.357,1.357,0,0,1,1-.4,1.485,1.485,0,0,1,1.05,2.55l-1.5,1.5a15.69,15.69,0,0,1,3.3,5.425A18.566,18.566,0,0,1,42,25.95a18.283,18.283,0,0,1-.675,4.925A15.642,15.642,0,0,1,39.2,35.45ZM25.5,21.75v-4.4a1.5,1.5,0,1,0-3,0v1.4ZM24,43.95a17.292,17.292,0,0,1-6.975-1.425,18.267,18.267,0,0,1-9.6-9.6A17.292,17.292,0,0,1,6,25.95a17.2,17.2,0,0,1,3.95-11.2L3.9,8.7a1.388,1.388,0,0,1-.4-1.025A1.537,1.537,0,0,1,5.025,6.15,1.467,1.467,0,0,1,6.1,6.6L41.5,42a1.476,1.476,0,0,1,.425,1.025A1.383,1.383,0,0,1,41.5,44.1a1.509,1.509,0,0,1-2.15,0L35.2,40a18.788,18.788,0,0,1-5.175,2.925A17.258,17.258,0,0,1,24,43.95Zm0-3a15.031,15.031,0,0,0,4.925-.8A14.306,14.306,0,0,0,33.2,37.8L12.15,16.75a13.483,13.483,0,0,0-2.35,4.3,15.4,15.4,0,0,0-.8,4.9,14.465,14.465,0,0,0,4.375,10.625A14.465,14.465,0,0,0,24,40.95ZM19.5,5A1.454,1.454,0,0,1,18,3.5,1.454,1.454,0,0,1,19.5,2h9A1.454,1.454,0,0,1,30,3.5,1.454,1.454,0,0,1,28.5,5ZM22.5,27.1ZM26.8,23.1Z" transform="translate(-3.5 -2)" fill="#fff"/>
</svg>
