<svg xmlns="http://www.w3.org/2000/svg" width="36" height="41.95" viewBox="0 0 36 41.95">
  <path id="timer" d="M19.5,5A1.454,1.454,0,0,1,18,3.5,1.454,1.454,0,0,1,19.5,2h9A1.454,1.454,0,0,1,30,3.5,1.454,1.454,0,0,1,28.5,5ZM24,27.35a1.454,1.454,0,0,0,1.5-1.5v-8.5a1.5,1.5,0,1,0-3,0v8.5a1.454,1.454,0,0,0,1.5,1.5Zm0,16.6a17.292,17.292,0,0,1-6.975-1.425,18.267,18.267,0,0,1-9.6-9.6,17.783,17.783,0,0,1,0-13.95,18.267,18.267,0,0,1,9.6-9.6A17.292,17.292,0,0,1,24,7.95a17.53,17.53,0,0,1,6.3,1.125A17.346,17.346,0,0,1,35.55,12.2l1.55-1.55a1.357,1.357,0,0,1,1-.4,1.485,1.485,0,0,1,1.05,2.55l-1.5,1.5a18.437,18.437,0,0,1,3.075,4.85A16.561,16.561,0,0,1,42,25.95a17.292,17.292,0,0,1-1.425,6.975,18.267,18.267,0,0,1-9.6,9.6A17.292,17.292,0,0,1,24,43.95Zm0-3a14.465,14.465,0,0,0,10.625-4.375A14.465,14.465,0,0,0,39,25.95a14.465,14.465,0,0,0-4.375-10.625A14.465,14.465,0,0,0,24,10.95a14.465,14.465,0,0,0-10.625,4.375A14.465,14.465,0,0,0,9,25.95a14.465,14.465,0,0,0,4.375,10.625A14.465,14.465,0,0,0,24,40.95ZM24,26Z" transform="translate(-6 -2)" fill="#fff"/>
</svg>
