<svg xmlns="http://www.w3.org/2000/svg" width="15" height="15" viewBox="0 0 26 26">
  <path id="dark_mode48" d="M19,32a12.537,12.537,0,0,1-9.208-3.792A12.537,12.537,0,0,1,6,19,12.537,12.537,0,0,1,9.792,9.792,12.537,12.537,0,0,1,19,6q.289,0,.614.018t.831.054a7.889,7.889,0,0,0-2.022,2.853A9.036,9.036,0,0,0,17.7,12.5a7.522,7.522,0,0,0,2.275,5.525A7.522,7.522,0,0,0,25.5,20.3a9.672,9.672,0,0,0,3.575-.668,7.982,7.982,0,0,0,2.853-1.86q.036.433.054.7T32,19a12.537,12.537,0,0,1-3.792,9.208A12.537,12.537,0,0,1,19,32Zm0-2.167A10.387,10.387,0,0,0,25.861,27.4a10.232,10.232,0,0,0,3.647-5.724,9.028,9.028,0,0,1-1.932.6,10.933,10.933,0,0,1-2.076.2,9.611,9.611,0,0,1-7.06-2.907,9.611,9.611,0,0,1-2.907-7.06,10.427,10.427,0,0,1,.181-1.86,13.565,13.565,0,0,1,.65-2.257A11,11,0,0,0,10.5,12.337,10.549,10.549,0,0,0,8.167,19a10.447,10.447,0,0,0,3.16,7.674A10.447,10.447,0,0,0,19,29.833ZM18.856,19.108Z" transform="translate(-6 -6)" fill="#e4e4e4"/>
</svg>
