<svg xmlns="http://www.w3.org/2000/svg" width="15" height="15" viewBox="0 0 26 26">
  <path id="light_mode" d="M15,19.136A4.136,4.136,0,0,0,19.136,15,4.136,4.136,0,0,0,15,10.864,4.136,4.136,0,0,0,10.864,15,4.136,4.136,0,0,0,15,19.136Zm0,1.773A5.9,5.9,0,0,1,9.091,15,5.9,5.9,0,0,1,15,9.091,5.9,5.9,0,0,1,20.909,15,5.9,5.9,0,0,1,15,20.909ZM2.886,15.886a.887.887,0,1,1,0-1.773H5.841a.887.887,0,1,1,0,1.773Zm21.273,0a.887.887,0,1,1,0-1.773h2.955a.887.887,0,1,1,0,1.773ZM15,6.727a.859.859,0,0,1-.886-.886V2.886a.887.887,0,1,1,1.773,0V5.841A.859.859,0,0,1,15,6.727ZM15,28a.859.859,0,0,1-.886-.886V24.159a.887.887,0,1,1,1.773,0v2.955A.859.859,0,0,1,15,28ZM7.909,9.15,6.225,7.5a.817.817,0,0,1-.251-.635.986.986,0,0,1,.251-.635.892.892,0,0,1,1.27,0L9.15,7.909a.9.9,0,0,1,.236.62.8.8,0,0,1-.236.591.774.774,0,0,1-.606.266.924.924,0,0,1-.635-.236ZM22.5,23.775,20.85,22.091a.924.924,0,0,1-.236-.635.774.774,0,0,1,.266-.606.758.758,0,0,1,.591-.266.85.85,0,0,1,.62.266L23.775,22.5a.817.817,0,0,1,.251.635.986.986,0,0,1-.251.635.892.892,0,0,1-1.27,0ZM20.85,9.15a.857.857,0,0,1,0-1.241L22.5,6.225a.817.817,0,0,1,.635-.251.986.986,0,0,1,.635.251.892.892,0,0,1,0,1.27L22.091,9.15a.82.82,0,0,1-.606.236.924.924,0,0,1-.635-.236ZM6.225,23.775a.892.892,0,0,1,0-1.27L7.909,20.85A.878.878,0,1,1,9.15,22.091L7.5,23.775a.817.817,0,0,1-.635.251.986.986,0,0,1-.635-.251ZM15,15Z" transform="translate(-2 -2)" fill="#e4e4e4"/>
</svg>
